G04 PROTEUS GERBER X2 FILE*
%TF.GenerationSoftware,Labcenter,Proteus,8.5-SP0-Build22067*%
%TF.CreationDate,2019-08-06T16:15:48+00:00*%
%TF.FileFunction,Copper,L16,Bot*%
%TF.FilePolarity,Positive*%
%TF.Part,Single*%
%FSLAX45Y45*%
%MOMM*%
G01*
%TA.AperFunction,Conductor*%
%ADD10C,0.762000*%
%ADD11C,0.254000*%
%TA.AperFunction,ComponentPad*%
%ADD12R,2.032000X2.032000*%
%ADD13C,1.016000*%
G36*
X+3200000Y+500000D02*
X+3105964Y+500000D01*
X+3185399Y+579435D01*
X+3185399Y+695165D01*
X+3103565Y+776999D01*
X+2987835Y+776999D01*
X+2906001Y+695165D01*
X+2906001Y+579435D01*
X+2985436Y+500000D01*
X-800000Y+500000D01*
X-800000Y+2000000D01*
X+3200000Y+2000000D01*
X+3200000Y+500000D01*
G37*
%LPC*%
G36*
X-409501Y+1455501D02*
X-409501Y+947501D01*
X-790499Y+947501D01*
X-790499Y+1836499D01*
X-409501Y+1836499D01*
X-409501Y+1455501D01*
G37*
G36*
X+2590499Y+1463501D02*
X+2590499Y+955501D01*
X+2209501Y+955501D01*
X+2209501Y+1016001D01*
X+1779805Y+1016001D01*
X+1754503Y+990699D01*
X+1804299Y+990699D01*
X+1804299Y+609701D01*
X+1108450Y+609701D01*
X+1102762Y+605879D01*
X+1098940Y+609701D01*
X+661301Y+609701D01*
X+661301Y+990699D01*
X+698272Y+990699D01*
X+677204Y+1011767D01*
X+190499Y+1011767D01*
X+190499Y+947501D01*
X-190499Y+947501D01*
X-190499Y+1836499D01*
X+190499Y+1836499D01*
X+190499Y+1518999D01*
X+933903Y+1518999D01*
X+1232801Y+1220101D01*
X+1232801Y+1234603D01*
X+1534897Y+1536699D01*
X+2209501Y+1536699D01*
X+2209501Y+1844499D01*
X+2590499Y+1844499D01*
X+2590499Y+1463501D01*
G37*
G36*
X+3190499Y+1463501D02*
X+3190499Y+955501D01*
X+2809501Y+955501D01*
X+2809501Y+1844499D01*
X+3190499Y+1844499D01*
X+3190499Y+1463501D01*
G37*
%LPD*%
D10*
X+1613800Y+800200D02*
X+1613800Y+1029600D01*
X+1727200Y+1143000D01*
X+2298400Y+1143000D01*
X+2400000Y+1146000D01*
X+1359800Y+800200D02*
X+1359800Y+1182000D01*
X+1587500Y+1409700D01*
X+2390300Y+1409700D01*
X+2400000Y+1400000D01*
X+851800Y+800200D02*
X+851800Y+1016773D01*
X+729807Y+1138766D01*
X+766Y+1138766D01*
X+0Y+1138000D01*
X+0Y+1392000D02*
X+881300Y+1392000D01*
X+1113761Y+1159539D01*
X+1113761Y+774502D01*
X+1118683Y+769580D01*
X+1105800Y+800200D01*
D11*
X+3200000Y+500000D02*
X+3105964Y+500000D01*
X+3185399Y+579435D01*
X+3185399Y+695165D01*
X+3103565Y+776999D01*
X+2987835Y+776999D01*
X+2906001Y+695165D01*
X+2906001Y+579435D01*
X+2985436Y+500000D01*
X-800000Y+500000D01*
X-800000Y+2000000D01*
X+3200000Y+2000000D01*
X+3200000Y+500000D01*
X-409501Y+1455501D02*
X-409501Y+947501D01*
X-790499Y+947501D01*
X-790499Y+1836499D01*
X-409501Y+1836499D01*
X-409501Y+1455501D01*
X+2590499Y+1463501D02*
X+2590499Y+955501D01*
X+2209501Y+955501D01*
X+2209501Y+1016001D01*
X+1779805Y+1016001D01*
X+1754503Y+990699D01*
X+1804299Y+990699D01*
X+1804299Y+609701D01*
X+1108450Y+609701D01*
X+1102762Y+605879D01*
X+1098940Y+609701D01*
X+661301Y+609701D01*
X+661301Y+990699D01*
X+698272Y+990699D01*
X+677204Y+1011767D01*
X+190499Y+1011767D01*
X+190499Y+947501D01*
X-190499Y+947501D01*
X-190499Y+1836499D01*
X+190499Y+1836499D01*
X+190499Y+1518999D01*
X+933903Y+1518999D01*
X+1232801Y+1220101D01*
X+1232801Y+1234603D01*
X+1534897Y+1536699D01*
X+2209501Y+1536699D01*
X+2209501Y+1844499D01*
X+2590499Y+1844499D01*
X+2590499Y+1463501D01*
X+3190499Y+1463501D02*
X+3190499Y+955501D01*
X+2809501Y+955501D01*
X+2809501Y+1844499D01*
X+3190499Y+1844499D01*
X+3190499Y+1463501D01*
D12*
X-600000Y+1138000D03*
X-600000Y+1392000D03*
X-600000Y+1646000D03*
X+0Y+1646000D03*
X+0Y+1392000D03*
X+0Y+1138000D03*
X+2400000Y+1146000D03*
X+2400000Y+1400000D03*
X+2400000Y+1654000D03*
X+3000000Y+1654000D03*
X+3000000Y+1400000D03*
X+3000000Y+1146000D03*
X+851800Y+800200D03*
X+1105800Y+800200D03*
X+1359800Y+800200D03*
X+1613800Y+800200D03*
D13*
X+3045700Y+637300D03*
M02*
