G04 PROTEUS RS274X GERBER FILE*
%FSLAX45Y45*%
%MOMM*%
G01*
%ADD14C,0.203200*%
D14*
X+473000Y+1011000D02*
X+727000Y+1011000D01*
X+727000Y+1773000D01*
X+473000Y+1773000D01*
X+473000Y+1011000D01*
X+767640Y+1201500D02*
X+859080Y+1201500D01*
X+859080Y+1280875D01*
X+843840Y+1296750D01*
X+828600Y+1296750D01*
X+813360Y+1280875D01*
X+798120Y+1296750D01*
X+782880Y+1296750D01*
X+767640Y+1280875D01*
X+767640Y+1201500D01*
X+813360Y+1201500D02*
X+813360Y+1280875D01*
X+828600Y+1360250D02*
X+859080Y+1392000D01*
X+767640Y+1392000D01*
X+767640Y+1455500D02*
X+828600Y+1455500D01*
X+859080Y+1487250D01*
X+859080Y+1519000D01*
X+828600Y+1550750D01*
X+767640Y+1550750D01*
X+798120Y+1455500D02*
X+798120Y+1550750D01*
X-127000Y+1011000D02*
X+127000Y+1011000D01*
X+127000Y+1773000D01*
X-127000Y+1773000D01*
X-127000Y+1011000D01*
X-259080Y+1201500D02*
X-167640Y+1201500D01*
X-167640Y+1280875D01*
X-182880Y+1296750D01*
X-198120Y+1296750D01*
X-213360Y+1280875D01*
X-228600Y+1296750D01*
X-243840Y+1296750D01*
X-259080Y+1280875D01*
X-259080Y+1201500D01*
X-213360Y+1201500D02*
X-213360Y+1280875D01*
X-198120Y+1360250D02*
X-167640Y+1392000D01*
X-259080Y+1392000D01*
X-259080Y+1455500D02*
X-167640Y+1455500D01*
X-167640Y+1534875D01*
X-182880Y+1550750D01*
X-198120Y+1550750D01*
X-213360Y+1534875D01*
X-228600Y+1550750D01*
X-243840Y+1550750D01*
X-259080Y+1534875D01*
X-259080Y+1455500D01*
X-213360Y+1455500D02*
X-213360Y+1534875D01*
X-2527000Y+1019000D02*
X-2273000Y+1019000D01*
X-2273000Y+1781000D01*
X-2527000Y+1781000D01*
X-2527000Y+1019000D01*
X-2232360Y+1209500D02*
X-2140920Y+1209500D01*
X-2140920Y+1288875D01*
X-2156160Y+1304750D01*
X-2171400Y+1304750D01*
X-2186640Y+1288875D01*
X-2201880Y+1304750D01*
X-2217120Y+1304750D01*
X-2232360Y+1288875D01*
X-2232360Y+1209500D01*
X-2186640Y+1209500D02*
X-2186640Y+1288875D01*
X-2156160Y+1352375D02*
X-2140920Y+1368250D01*
X-2140920Y+1415875D01*
X-2156160Y+1431750D01*
X-2171400Y+1431750D01*
X-2186640Y+1415875D01*
X-2186640Y+1368250D01*
X-2201880Y+1352375D01*
X-2232360Y+1352375D01*
X-2232360Y+1431750D01*
X-2232360Y+1463500D02*
X-2171400Y+1463500D01*
X-2140920Y+1495250D01*
X-2140920Y+1527000D01*
X-2171400Y+1558750D01*
X-2232360Y+1558750D01*
X-2201880Y+1463500D02*
X-2201880Y+1558750D01*
X-3127000Y+1019000D02*
X-2873000Y+1019000D01*
X-2873000Y+1781000D01*
X-3127000Y+1781000D01*
X-3127000Y+1019000D01*
X-3259080Y+1209500D02*
X-3167640Y+1209500D01*
X-3167640Y+1288875D01*
X-3182880Y+1304750D01*
X-3198120Y+1304750D01*
X-3213360Y+1288875D01*
X-3228600Y+1304750D01*
X-3243840Y+1304750D01*
X-3259080Y+1288875D01*
X-3259080Y+1209500D01*
X-3213360Y+1209500D02*
X-3213360Y+1288875D01*
X-3182880Y+1352375D02*
X-3167640Y+1368250D01*
X-3167640Y+1415875D01*
X-3182880Y+1431750D01*
X-3198120Y+1431750D01*
X-3213360Y+1415875D01*
X-3213360Y+1368250D01*
X-3228600Y+1352375D01*
X-3259080Y+1352375D01*
X-3259080Y+1431750D01*
X-3259080Y+1463500D02*
X-3167640Y+1463500D01*
X-3167640Y+1542875D01*
X-3182880Y+1558750D01*
X-3198120Y+1558750D01*
X-3213360Y+1542875D01*
X-3228600Y+1558750D01*
X-3243840Y+1558750D01*
X-3259080Y+1542875D01*
X-3259080Y+1463500D01*
X-3213360Y+1463500D02*
X-3213360Y+1542875D01*
X-1997000Y+555500D02*
X-473000Y+555500D01*
X-473000Y+936500D01*
X-1997000Y+936500D01*
X-1997000Y+555500D01*
X-1108000Y+1007620D02*
X-1108000Y+992380D01*
X-1123875Y+977140D01*
X-1187375Y+977140D01*
X-1203250Y+992380D01*
X-1203250Y+1068580D01*
X-1266750Y+1038100D02*
X-1298500Y+1068580D01*
X-1298500Y+977140D01*
M02*
