G04 PROTEUS RS274X GERBER FILE*
%FSLAX45Y45*%
%MOMM*%
G01*
%ADD10C,0.508000*%
%ADD11C,0.254000*%
%ADD12R,2.032000X2.032000*%
%AMDIL003*
4,1,8,
-0.762000,0.965200,-0.457200,1.270000,0.457200,1.270000,0.762000,0.965200,0.762000,-0.965200,
0.457200,-1.270000,-0.457200,-1.270000,-0.762000,-0.965200,-0.762000,0.965200,
0*%
%ADD13DIL003*%
G36*
X+800000Y+2000000D02*
X-3200000Y+2000000D01*
X-3200000Y+500000D01*
X+800000Y+500000D01*
X+800000Y+2000000D01*
G37*
%LPC*%
G36*
X-139699Y+1709499D02*
X-1202801Y+1709499D01*
X-1425499Y+1486801D01*
X-1425499Y+911099D01*
X-1476299Y+911099D01*
X-1476299Y+580901D01*
X-1247701Y+580901D01*
X-1247701Y+911099D01*
X-1298501Y+911099D01*
X-1298501Y+1434199D01*
X-1150199Y+1582501D01*
X-139699Y+1582501D01*
X-139699Y+1201499D01*
X-948801Y+1201499D01*
X-1171499Y+978801D01*
X-1171499Y+911099D01*
X-1222299Y+911099D01*
X-1222299Y+580901D01*
X-993701Y+580901D01*
X-993701Y+911099D01*
X-1044501Y+911099D01*
X-1044501Y+926199D01*
X-896199Y+1074501D01*
X-139699Y+1074501D01*
X-139699Y+1015999D01*
X-880301Y+1015999D01*
X-917499Y+978801D01*
X-917499Y+911099D01*
X-968299Y+911099D01*
X-968299Y+580901D01*
X-739701Y+580901D01*
X-739701Y+889001D01*
X-714299Y+889001D01*
X-714299Y+580901D01*
X-485701Y+580901D01*
X-485701Y+682501D01*
X+443801Y+682501D01*
X+663499Y+902199D01*
X+663499Y+998301D01*
X+739699Y+998301D01*
X+739699Y+1785699D01*
X+460301Y+1785699D01*
X+460301Y+1709499D01*
X+391199Y+1709499D01*
X+354001Y+1672301D01*
X+354001Y+1105801D01*
X+264199Y+1015999D01*
X+139699Y+1015999D01*
X+139699Y+1785699D01*
X-139699Y+1785699D01*
X-139699Y+1709499D01*
G37*
G36*
X-2539699Y+1717499D02*
X-2602801Y+1717499D01*
X-2639999Y+1680301D01*
X-2639999Y+846699D01*
X-2475801Y+682501D01*
X-1984299Y+682501D01*
X-1984299Y+580901D01*
X-1755701Y+580901D01*
X-1755701Y+911099D01*
X-1984299Y+911099D01*
X-1984299Y+809499D01*
X-2423199Y+809499D01*
X-2513001Y+899301D01*
X-2513001Y+1006301D01*
X-2260301Y+1006301D01*
X-2260301Y+1082501D01*
X-1772301Y+1082501D01*
X-1679499Y+989699D01*
X-1679499Y+911099D01*
X-1730299Y+911099D01*
X-1730299Y+580901D01*
X-1501701Y+580901D01*
X-1501701Y+911099D01*
X-1552501Y+911099D01*
X-1552501Y+1042301D01*
X-1719699Y+1209499D01*
X-2260301Y+1209499D01*
X-2260301Y+1793699D01*
X-2539699Y+1793699D01*
X-2539699Y+1717499D01*
G37*
G36*
X-3139699Y+1514301D02*
X-3139699Y+1006301D01*
X-2860301Y+1006301D01*
X-2860301Y+1793699D01*
X-3139699Y+1793699D01*
X-3139699Y+1514301D01*
G37*
%LPD*%
D10*
X-600000Y+746000D02*
X+417500Y+746000D01*
X+600000Y+928500D01*
X+600000Y+1138000D01*
X-1108000Y+746000D02*
X-1108000Y+952500D01*
X-922500Y+1138000D01*
X+0Y+1138000D01*
X-1362000Y+746000D02*
X-1362000Y+1460500D01*
X-1176500Y+1646000D01*
X+0Y+1646000D01*
X-854000Y+746000D02*
X-854000Y+952500D01*
X+290500Y+952500D01*
X+417500Y+1079500D01*
X+417500Y+1646000D01*
X+600000Y+1646000D01*
X-1616000Y+746000D02*
X-1616000Y+1016000D01*
X-1746000Y+1146000D01*
X-2400000Y+1146000D01*
X-1870000Y+746000D02*
X-2449500Y+746000D01*
X-2576500Y+873000D01*
X-2576500Y+1654000D01*
X-2400000Y+1654000D01*
D11*
X+800000Y+2000000D02*
X-3200000Y+2000000D01*
X-3200000Y+500000D01*
X+800000Y+500000D01*
X+800000Y+2000000D01*
X-139699Y+1709499D02*
X-1202801Y+1709499D01*
X-1425499Y+1486801D01*
X-1425499Y+911099D01*
X-1476299Y+911099D01*
X-1476299Y+580901D01*
X-1247701Y+580901D01*
X-1247701Y+911099D01*
X-1298501Y+911099D01*
X-1298501Y+1434199D01*
X-1150199Y+1582501D01*
X-139699Y+1582501D01*
X-139699Y+1201499D01*
X-948801Y+1201499D01*
X-1171499Y+978801D01*
X-1171499Y+911099D01*
X-1222299Y+911099D01*
X-1222299Y+580901D01*
X-993701Y+580901D01*
X-993701Y+911099D01*
X-1044501Y+911099D01*
X-1044501Y+926199D01*
X-896199Y+1074501D01*
X-139699Y+1074501D01*
X-139699Y+1015999D01*
X-880301Y+1015999D01*
X-917499Y+978801D01*
X-917499Y+911099D01*
X-968299Y+911099D01*
X-968299Y+580901D01*
X-739701Y+580901D01*
X-739701Y+889001D01*
X-714299Y+889001D01*
X-714299Y+580901D01*
X-485701Y+580901D01*
X-485701Y+682501D01*
X+443801Y+682501D01*
X+663499Y+902199D01*
X+663499Y+998301D01*
X+739699Y+998301D01*
X+739699Y+1785699D01*
X+460301Y+1785699D01*
X+460301Y+1709499D01*
X+391199Y+1709499D01*
X+354001Y+1672301D01*
X+354001Y+1105801D01*
X+264199Y+1015999D01*
X+139699Y+1015999D01*
X+139699Y+1785699D01*
X-139699Y+1785699D01*
X-139699Y+1709499D01*
X-2539699Y+1717499D02*
X-2602801Y+1717499D01*
X-2639999Y+1680301D01*
X-2639999Y+846699D01*
X-2475801Y+682501D01*
X-1984299Y+682501D01*
X-1984299Y+580901D01*
X-1755701Y+580901D01*
X-1755701Y+911099D01*
X-1984299Y+911099D01*
X-1984299Y+809499D01*
X-2423199Y+809499D01*
X-2513001Y+899301D01*
X-2513001Y+1006301D01*
X-2260301Y+1006301D01*
X-2260301Y+1082501D01*
X-1772301Y+1082501D01*
X-1679499Y+989699D01*
X-1679499Y+911099D01*
X-1730299Y+911099D01*
X-1730299Y+580901D01*
X-1501701Y+580901D01*
X-1501701Y+911099D01*
X-1552501Y+911099D01*
X-1552501Y+1042301D01*
X-1719699Y+1209499D01*
X-2260301Y+1209499D01*
X-2260301Y+1793699D01*
X-2539699Y+1793699D01*
X-2539699Y+1717499D01*
X-3139699Y+1514301D02*
X-3139699Y+1006301D01*
X-2860301Y+1006301D01*
X-2860301Y+1793699D01*
X-3139699Y+1793699D01*
X-3139699Y+1514301D01*
D12*
X+600000Y+1138000D03*
X+600000Y+1392000D03*
X+600000Y+1646000D03*
X+0Y+1646000D03*
X+0Y+1392000D03*
X+0Y+1138000D03*
X-2400000Y+1146000D03*
X-2400000Y+1400000D03*
X-2400000Y+1654000D03*
X-3000000Y+1654000D03*
X-3000000Y+1400000D03*
X-3000000Y+1146000D03*
D13*
X-600000Y+746000D03*
X-854000Y+746000D03*
X-1108000Y+746000D03*
X-1362000Y+746000D03*
X-1616000Y+746000D03*
X-1870000Y+746000D03*
M02*
