G04 PROTEUS RS274X GERBER FILE*
%FSLAX45Y45*%
%MOMM*%
G01*
%ADD10C,0.508000*%
%ADD11C,0.254000*%
%ADD12R,2.032000X2.032000*%
%AMDIL003*
4,1,8,
-0.762000,0.965200,-0.457200,1.270000,0.457200,1.270000,0.762000,0.965200,0.762000,-0.965200,
0.457200,-1.270000,-0.457200,-1.270000,-0.762000,-0.965200,-0.762000,0.965200,
0*%
%ADD13DIL003*%
G36*
X-800000Y+2000000D02*
X+3200000Y+2000000D01*
X+3200000Y+500000D01*
X-800000Y+500000D01*
X-800000Y+2000000D01*
G37*
%LPC*%
G36*
X-460301Y+1506301D02*
X-460301Y+998301D01*
X-739699Y+998301D01*
X-739699Y+1785699D01*
X-460301Y+1785699D01*
X-460301Y+1506301D01*
G37*
G36*
X+139699Y+1506301D02*
X+139699Y+1201499D01*
X+724801Y+1201499D01*
X+947499Y+978801D01*
X+947499Y+919099D01*
X+998299Y+919099D01*
X+998299Y+588901D01*
X+769701Y+588901D01*
X+769701Y+919099D01*
X+820501Y+919099D01*
X+820501Y+926199D01*
X+672199Y+1074501D01*
X+139699Y+1074501D01*
X+139699Y+998301D01*
X-127001Y+998301D01*
X-127001Y+907301D01*
X-37199Y+817499D01*
X+515701Y+817499D01*
X+515701Y+919099D01*
X+744299Y+919099D01*
X+744299Y+588901D01*
X+515701Y+588901D01*
X+515701Y+690501D01*
X-89801Y+690501D01*
X-253999Y+854699D01*
X-253999Y+1418301D01*
X-216801Y+1455499D01*
X-139699Y+1455499D01*
X-139699Y+1785699D01*
X+139699Y+1785699D01*
X+139699Y+1506301D01*
G37*
G36*
X+3139699Y+1514301D02*
X+3139699Y+1006301D01*
X+2950101Y+1006301D01*
X+2634301Y+690501D01*
X+2014299Y+690501D01*
X+2014299Y+588901D01*
X+1785701Y+588901D01*
X+1785701Y+889001D01*
X+1760299Y+889001D01*
X+1760299Y+588901D01*
X+1531701Y+588901D01*
X+1531701Y+919099D01*
X+1582501Y+919099D01*
X+1582501Y+978801D01*
X+1619699Y+1015999D01*
X+2260301Y+1015999D01*
X+2260301Y+1082501D01*
X+1548301Y+1082501D01*
X+1455499Y+989699D01*
X+1455499Y+919099D01*
X+1506299Y+919099D01*
X+1506299Y+588901D01*
X+1277701Y+588901D01*
X+1277701Y+919099D01*
X+1328501Y+919099D01*
X+1328501Y+1042301D01*
X+1495699Y+1209499D01*
X+2260301Y+1209499D01*
X+2260301Y+1336501D01*
X+1294301Y+1336501D01*
X+1201499Y+1243699D01*
X+1201499Y+919099D01*
X+1252299Y+919099D01*
X+1252299Y+588901D01*
X+1023701Y+588901D01*
X+1023701Y+919099D01*
X+1074501Y+919099D01*
X+1074501Y+1296301D01*
X+1241699Y+1463499D01*
X+2260301Y+1463499D01*
X+2260301Y+1793699D01*
X+2539699Y+1793699D01*
X+2539699Y+1015999D01*
X+2586501Y+1015999D01*
X+2586501Y+1342801D01*
X+2707199Y+1463499D01*
X+2860301Y+1463499D01*
X+2860301Y+1793699D01*
X+3139699Y+1793699D01*
X+3139699Y+1514301D01*
G37*
%LPD*%
D10*
X+1900000Y+754000D02*
X+2608000Y+754000D01*
X+3000000Y+1146000D01*
X+1392000Y+754000D02*
X+1392000Y+1016000D01*
X+1522000Y+1146000D01*
X+2400000Y+1146000D01*
X+884000Y+754000D02*
X+884000Y+952500D01*
X+698500Y+1138000D01*
X+0Y+1138000D01*
X+630000Y+754000D02*
X-63500Y+754000D01*
X-190500Y+881000D01*
X-190500Y+1392000D01*
X+0Y+1392000D01*
X+1138000Y+754000D02*
X+1138000Y+1270000D01*
X+1268000Y+1400000D01*
X+2400000Y+1400000D01*
X+1646000Y+754000D02*
X+1646000Y+952500D01*
X+2650000Y+952500D01*
X+2650000Y+1316500D01*
X+2733500Y+1400000D01*
X+3000000Y+1400000D01*
D11*
X-800000Y+2000000D02*
X+3200000Y+2000000D01*
X+3200000Y+500000D01*
X-800000Y+500000D01*
X-800000Y+2000000D01*
X-460301Y+1506301D02*
X-460301Y+998301D01*
X-739699Y+998301D01*
X-739699Y+1785699D01*
X-460301Y+1785699D01*
X-460301Y+1506301D01*
X+139699Y+1506301D02*
X+139699Y+1201499D01*
X+724801Y+1201499D01*
X+947499Y+978801D01*
X+947499Y+919099D01*
X+998299Y+919099D01*
X+998299Y+588901D01*
X+769701Y+588901D01*
X+769701Y+919099D01*
X+820501Y+919099D01*
X+820501Y+926199D01*
X+672199Y+1074501D01*
X+139699Y+1074501D01*
X+139699Y+998301D01*
X-127001Y+998301D01*
X-127001Y+907301D01*
X-37199Y+817499D01*
X+515701Y+817499D01*
X+515701Y+919099D01*
X+744299Y+919099D01*
X+744299Y+588901D01*
X+515701Y+588901D01*
X+515701Y+690501D01*
X-89801Y+690501D01*
X-253999Y+854699D01*
X-253999Y+1418301D01*
X-216801Y+1455499D01*
X-139699Y+1455499D01*
X-139699Y+1785699D01*
X+139699Y+1785699D01*
X+139699Y+1506301D01*
X+3139699Y+1514301D02*
X+3139699Y+1006301D01*
X+2950101Y+1006301D01*
X+2634301Y+690501D01*
X+2014299Y+690501D01*
X+2014299Y+588901D01*
X+1785701Y+588901D01*
X+1785701Y+889001D01*
X+1760299Y+889001D01*
X+1760299Y+588901D01*
X+1531701Y+588901D01*
X+1531701Y+919099D01*
X+1582501Y+919099D01*
X+1582501Y+978801D01*
X+1619699Y+1015999D01*
X+2260301Y+1015999D01*
X+2260301Y+1082501D01*
X+1548301Y+1082501D01*
X+1455499Y+989699D01*
X+1455499Y+919099D01*
X+1506299Y+919099D01*
X+1506299Y+588901D01*
X+1277701Y+588901D01*
X+1277701Y+919099D01*
X+1328501Y+919099D01*
X+1328501Y+1042301D01*
X+1495699Y+1209499D01*
X+2260301Y+1209499D01*
X+2260301Y+1336501D01*
X+1294301Y+1336501D01*
X+1201499Y+1243699D01*
X+1201499Y+919099D01*
X+1252299Y+919099D01*
X+1252299Y+588901D01*
X+1023701Y+588901D01*
X+1023701Y+919099D01*
X+1074501Y+919099D01*
X+1074501Y+1296301D01*
X+1241699Y+1463499D01*
X+2260301Y+1463499D01*
X+2260301Y+1793699D01*
X+2539699Y+1793699D01*
X+2539699Y+1015999D01*
X+2586501Y+1015999D01*
X+2586501Y+1342801D01*
X+2707199Y+1463499D01*
X+2860301Y+1463499D01*
X+2860301Y+1793699D01*
X+3139699Y+1793699D01*
X+3139699Y+1514301D01*
D12*
X-600000Y+1138000D03*
X-600000Y+1392000D03*
X-600000Y+1646000D03*
X+0Y+1646000D03*
X+0Y+1392000D03*
X+0Y+1138000D03*
X+2400000Y+1146000D03*
X+2400000Y+1400000D03*
X+2400000Y+1654000D03*
X+3000000Y+1654000D03*
X+3000000Y+1400000D03*
X+3000000Y+1146000D03*
D13*
X+1900000Y+754000D03*
X+1646000Y+754000D03*
X+1392000Y+754000D03*
X+1138000Y+754000D03*
X+884000Y+754000D03*
X+630000Y+754000D03*
M02*
