M48
METRIC,TZ
T01C1.0000
T02C1.0160
T03C0.7620
%
T01
X-22500Y+26800
X-22500Y+24260
X-22500Y+21720
X-22500Y+19180
X-22500Y+16640
X-22500Y+14100
X-22500Y+11560
X-22500Y+9020
X-1300Y+9120
X-1300Y+11660
X-1300Y+14200
X-1300Y+16740
X-1300Y+19280
X-1300Y+21820
X-1300Y+24360
X-1300Y+26900
X-9000Y-21000
X-9000Y-18460
X-9000Y-15920
X-9000Y-13380
X-9000Y-10840
X-9000Y-8300
X-9000Y-5760
X-9000Y-3220
T02
X+5000Y+26000
X+7540Y+26000
X+10080Y+26000
X+12620Y+26000
X+15160Y+26000
X+17700Y+26000
X+20240Y+26000
X-18000Y-9000
X-18000Y-6460
X-18000Y-19000
X-18000Y-16460
X-18000Y-29000
X-18000Y-26460
X-10000Y-29000
X-10000Y-26460
X+21000Y-15000
X+21000Y-12460
X+21000Y-5000
X+21000Y-7540
T03
X+9000Y-4700
X-1160Y-4700
X+8900Y-7700
X-1260Y-7700
X+8900Y-10700
X-1260Y-10700
X-1200Y-13700
X+8960Y-13700
X+11840Y+3000
X+22000Y+3000
X-6000Y+3000
X-16160Y+3000
X-3000Y+3000
X+7160Y+3000
X-16000Y+6000
X-5840Y+6000
M30
