G04 PROTEUS RS274X GERBER FILE*
%FSLAX45Y45*%
%MOMM*%
G01*
%AMPPAD007*
4,1,8,
-1.397000,0.509800,
-1.397000,-0.509800,
-1.017800,-0.889000,
1.017800,-0.889000,
1.397000,-0.509800,
1.397000,0.509800,
1.017800,0.889000,
-1.017800,0.889000,
-1.397000,0.509800,
0*%
%ADD17PPAD007*%
%AMPPAD008*
4,1,36,
-1.016000,-1.143000,
1.016000,-1.143000,
1.041970,-1.140470,
1.065980,-1.133200,
1.087580,-1.121650,
1.106290,-1.106290,
1.121650,-1.087570,
1.133200,-1.065980,
1.140470,-1.041970,
1.143000,-1.016000,
1.143000,1.016000,
1.140470,1.041970,
1.133200,1.065980,
1.121650,1.087570,
1.106290,1.106290,
1.087580,1.121650,
1.065980,1.133200,
1.041970,1.140470,
1.016000,1.143000,
-1.016000,1.143000,
-1.041970,1.140470,
-1.065980,1.133200,
-1.087580,1.121650,
-1.106290,1.106290,
-1.121650,1.087570,
-1.133200,1.065980,
-1.140470,1.041970,
-1.143000,1.016000,
-1.143000,-1.016000,
-1.140470,-1.041970,
-1.133200,-1.065980,
-1.121650,-1.087570,
-1.106290,-1.106290,
-1.087580,-1.121650,
-1.065980,-1.133200,
-1.041970,-1.140470,
-1.016000,-1.143000,
0*%
%ADD18PPAD008*%
%AMPPAD009*
4,1,36,
1.143000,-1.016000,
1.143000,1.016000,
1.140470,1.041970,
1.133200,1.065980,
1.121650,1.087580,
1.106290,1.106290,
1.087570,1.121650,
1.065980,1.133200,
1.041970,1.140470,
1.016000,1.143000,
-1.016000,1.143000,
-1.041970,1.140470,
-1.065980,1.133200,
-1.087570,1.121650,
-1.106290,1.106290,
-1.121650,1.087580,
-1.133200,1.065980,
-1.140470,1.041970,
-1.143000,1.016000,
-1.143000,-1.016000,
-1.140470,-1.041970,
-1.133200,-1.065980,
-1.121650,-1.087580,
-1.106290,-1.106290,
-1.087570,-1.121650,
-1.065980,-1.133200,
-1.041970,-1.140470,
-1.016000,-1.143000,
1.016000,-1.143000,
1.041970,-1.140470,
1.065980,-1.133200,
1.087570,-1.121650,
1.106290,-1.106290,
1.121650,-1.087580,
1.133200,-1.065980,
1.140470,-1.041970,
1.143000,-1.016000,
0*%
%ADD19PPAD009*%
%ADD70C,2.032000*%
D17*
X-2250000Y+2680000D03*
X-2250000Y+2426000D03*
X-2250000Y+2172000D03*
X-2250000Y+1918000D03*
X-2250000Y+1664000D03*
X-2250000Y+1410000D03*
X-2250000Y+1156000D03*
X-2250000Y+902000D03*
X-130000Y+912000D03*
X-130000Y+1166000D03*
X-130000Y+1420000D03*
X-130000Y+1674000D03*
X-130000Y+1928000D03*
X-130000Y+2182000D03*
X-130000Y+2436000D03*
X-130000Y+2690000D03*
D18*
X+500000Y+2600000D03*
X+754000Y+2600000D03*
X+1008000Y+2600000D03*
X+1262000Y+2600000D03*
X+1516000Y+2600000D03*
X+1770000Y+2600000D03*
X+2024000Y+2600000D03*
D19*
X-1800000Y-900000D03*
X-1800000Y-646000D03*
X-1800000Y-1900000D03*
X-1800000Y-1646000D03*
X-1800000Y-2900000D03*
X-1800000Y-2646000D03*
X-1000000Y-2900000D03*
X-1000000Y-2646000D03*
X+2100000Y-1500000D03*
X+2100000Y-1246000D03*
X+2100000Y-500000D03*
X+2100000Y-754000D03*
D70*
X+900000Y-470000D03*
X-116000Y-470000D03*
X+890000Y-770000D03*
X-126000Y-770000D03*
X+890000Y-1070000D03*
X-126000Y-1070000D03*
X-120000Y-1370000D03*
X+896000Y-1370000D03*
X+1184000Y+300000D03*
X+2200000Y+300000D03*
X-600000Y+300000D03*
X-1616000Y+300000D03*
X-300000Y+300000D03*
X+716000Y+300000D03*
X-1600000Y+600000D03*
X-584000Y+600000D03*
D17*
X-900000Y-2100000D03*
X-900000Y-1846000D03*
X-900000Y-1592000D03*
X-900000Y-1338000D03*
X-900000Y-1084000D03*
X-900000Y-830000D03*
X-900000Y-576000D03*
X-900000Y-322000D03*
M02*
