G04 PROTEUS GERBER X2 FILE*
%TF.GenerationSoftware,Labcenter,Proteus,8.5-SP0-Build22067*%
%TF.CreationDate,2018-12-03T21:41:26+00:00*%
%TF.FileFunction,Plated,1,16,PTH*%
%TF.FilePolarity,Positive*%
%TF.Part,Single*%
%FSLAX45Y45*%
%MOMM*%
G01*
%TA.AperFunction,ComponentDrill*%
%ADD18C,1.000000*%
%ADD19C,1.016000*%
%ADD70C,0.762000*%
D18*
X+2250000Y+2680000D03*
X+2250000Y+2426000D03*
X+2250000Y+2172000D03*
X+2250000Y+1918000D03*
X+2250000Y+1664000D03*
X+2250000Y+1410000D03*
X+2250000Y+1156000D03*
X+2250000Y+902000D03*
X+130000Y+912000D03*
X+130000Y+1166000D03*
X+130000Y+1420000D03*
X+130000Y+1674000D03*
X+130000Y+1928000D03*
X+130000Y+2182000D03*
X+130000Y+2436000D03*
X+130000Y+2690000D03*
D19*
X-500000Y+2600000D03*
X-754000Y+2600000D03*
X-1008000Y+2600000D03*
X-1262000Y+2600000D03*
X-1516000Y+2600000D03*
X-1770000Y+2600000D03*
X-2024000Y+2600000D03*
X+1800000Y-900000D03*
X+1800000Y-646000D03*
X+1800000Y-1900000D03*
X+1800000Y-1646000D03*
X+1800000Y-2900000D03*
X+1800000Y-2646000D03*
X+1000000Y-2900000D03*
X+1000000Y-2646000D03*
X-2100000Y-1500000D03*
X-2100000Y-1246000D03*
X-2100000Y-500000D03*
X-2100000Y-754000D03*
D70*
X-900000Y-470000D03*
X+116000Y-470000D03*
X-890000Y-770000D03*
X+126000Y-770000D03*
X-890000Y-1070000D03*
X+126000Y-1070000D03*
X+120000Y-1370000D03*
X-896000Y-1370000D03*
X-1184000Y+300000D03*
X-2200000Y+300000D03*
X+600000Y+300000D03*
X+1616000Y+300000D03*
X+300000Y+300000D03*
X-716000Y+300000D03*
X+1600000Y+600000D03*
X+584000Y+600000D03*
D18*
X+900000Y-2100000D03*
X+900000Y-1846000D03*
X+900000Y-1592000D03*
X+900000Y-1338000D03*
X+900000Y-1084000D03*
X+900000Y-830000D03*
X+900000Y-576000D03*
X+900000Y-322000D03*
M02*
