M48
METRIC,TZ
T01C1.0000
T02C1.0160
T03C0.7620
%
T01
X+23000Y+22780
X+23000Y+20240
X+23000Y+17700
X+23000Y+15160
X+23000Y+12620
X+23000Y+10080
X+23000Y+7540
X+23000Y+5000
X+1600Y+22800
X+1600Y+20260
X+1600Y+17720
X+1600Y+15180
X+1600Y+12640
X+1600Y+10100
X+1600Y+7560
X+1600Y+5020
T02
X-20200Y+26000
X-17660Y+26000
X-15120Y+26000
X-12580Y+26000
X-10040Y+26000
X-7500Y+26000
X-4960Y+26000
X+18000Y-8960
X+18000Y-11500
X+18000Y-18960
X+18000Y-21500
X+18000Y-28960
X+18000Y-31500
X+17800Y-39400
X+17800Y-41940
X+7000Y-22000
X+7000Y-19460
X+7000Y-16920
X+7000Y-14380
X+1000Y-40540
X+1000Y-38000
X-22000Y-37460
X-22000Y-40000
T03
X-17000Y-4200
X-17000Y-6740
X-17000Y-9280
X-17000Y-11820
X-9380Y-11820
X-9380Y-9280
X-9380Y-6740
X-9380Y-4200
X+8800Y-27200
X+8800Y-37360
X+6300Y-27200
X+6300Y-37360
X+3800Y-27200
X+3800Y-37360
X+11300Y-27040
X+11300Y-37200
X-14600Y+19300
X-14600Y+9140
X-17500Y+19300
X-17500Y+9140
X-20200Y+9140
X-20200Y+19300
X-20800Y-7900
X-20800Y-10440
X-14440Y+400
X-11900Y+400
X-3900Y-14400
X-3900Y-24560
M30
