M48
METRIC,TZ
T01C1.0000
T02C1.0160
T03C0.7620
%
T01
X-23000Y+22780
X-23000Y+20240
X-23000Y+17700
X-23000Y+15160
X-23000Y+12620
X-23000Y+10080
X-23000Y+7540
X-23000Y+5000
X-1000Y+22780
X-1000Y+20240
X-1000Y+17700
X-1000Y+15160
X-1000Y+12620
X-1000Y+10080
X-1000Y+7540
X-1000Y+5000
X-9000Y-21000
X-9000Y-18460
X-9000Y-15920
X-9000Y-13380
X-9000Y-10840
X-9000Y-8300
X-9000Y-5760
X-9000Y-3220
T02
X+20200Y+26000
X+17660Y+26000
X+15120Y+26000
X+12580Y+26000
X+10040Y+26000
X+7500Y+26000
X+4960Y+26000
X-18000Y-9000
X-18000Y-6460
X-18000Y-19000
X-18000Y-16460
X-18000Y-29000
X-18000Y-26460
X-10000Y-29000
X-10000Y-26460
X+21000Y-15000
X+21000Y-12460
X+21000Y-5000
X+21000Y-7540
T03
X+2200Y-8500
X+2200Y-18660
X+5200Y-8600
X+5200Y-18760
X+8200Y-8600
X+8200Y-18760
X+11200Y-18700
X+11200Y-8540
X+9000Y+16660
X+9000Y+6500
X+16000Y+16500
X+16000Y+6340
X+12500Y+16500
X+12500Y+6340
X-3500Y-6000
X+6660Y-6000
X-12500Y-18500
X-12500Y-29000
M30
