G04 PROTEUS GERBER X2 FILE*
%TF.GenerationSoftware,Labcenter,Proteus,8.5-SP0-Build22067*%
%TF.CreationDate,2018-12-13T00:00:26+00:00*%
%TF.FileFunction,Copper,L16,Bot*%
%TF.FilePolarity,Positive*%
%TF.Part,Single*%
%FSLAX45Y45*%
%MOMM*%
G01*
%TA.AperFunction,Conductor*%
%ADD10C,0.508000*%
%ADD11C,0.304800*%
%ADD12C,0.254000*%
%ADD13C,0.381000*%
%AMDIL004*
4,1,8,
-1.270000,0.457200,-0.965200,0.762000,0.965200,0.762000,1.270000,0.457200,1.270000,-0.457200,
0.965200,-0.762000,-0.965200,-0.762000,-1.270000,-0.457200,-1.270000,0.457200,
0*%
%TA.AperFunction,ComponentPad*%
%ADD14DIL004*%
%ADD15R,2.032000X2.032000*%
%ADD16C,1.778000*%
G36*
X+2400000Y+2411349D02*
X+2115851Y+2411349D01*
X+2115851Y+2350389D01*
X+1240017Y+2350389D01*
X+1089199Y+2199571D01*
X+1089199Y-97015D01*
X+1068103Y-118111D01*
X+873263Y-118111D01*
X+897889Y-93485D01*
X+897889Y+220485D01*
X+791985Y+326389D01*
X+510415Y+326389D01*
X+452389Y+420520D01*
X+452389Y+1599599D01*
X+432613Y+1633443D01*
X+284149Y+1717101D01*
X+284149Y+1903349D01*
X-84149Y+1903349D01*
X-84149Y+1723389D01*
X-859017Y+1723389D01*
X-931611Y+1795983D01*
X-931611Y+2441251D01*
X-845251Y+2441251D01*
X-845251Y+2758749D01*
X-1924749Y+2758749D01*
X-1924749Y+2441251D01*
X-1848549Y+2441251D01*
X-1848549Y+1731809D01*
X-946049Y+829309D01*
X-946049Y+739505D01*
X-860495Y+653951D01*
X-770691Y+653951D01*
X-134191Y+17451D01*
X+476005Y+17451D01*
X+539505Y-46049D01*
X+660495Y-46049D01*
X+746049Y+39505D01*
X+746049Y+160495D01*
X+724933Y+181611D01*
X+732015Y+181611D01*
X+753111Y+160515D01*
X+753111Y-33515D01*
X+732015Y-54611D01*
X-93483Y-54611D01*
X-392389Y-353517D01*
X-392389Y-979983D01*
X-93483Y-1278889D01*
X+4567Y-1278889D01*
X-26049Y-1309505D01*
X-26049Y-1430495D01*
X+52907Y-1509451D01*
X-323193Y-1509451D01*
X-391193Y-1577451D01*
X-1905807Y-1577451D01*
X-1941251Y-1542007D01*
X-1941251Y-1341251D01*
X-2203451Y-1341251D01*
X-2203451Y-658749D01*
X-1941251Y-658749D01*
X-1941251Y-341251D01*
X-2258749Y-341251D01*
X-2258749Y-417451D01*
X-2320193Y-417451D01*
X-2330451Y-427709D01*
X-2330451Y+2759807D01*
X-2315307Y+2774951D01*
X-593693Y+2774951D01*
X-578549Y+2759807D01*
X-578549Y+2758749D01*
X-654749Y+2758749D01*
X-654749Y+2441251D01*
X-453993Y+2441251D01*
X-208193Y+2195451D01*
X-84149Y+2195451D01*
X-84149Y+2144651D01*
X+284149Y+2144651D01*
X+284149Y+2411349D01*
X-84149Y+2411349D01*
X-84149Y+2360549D01*
X-139807Y+2360549D01*
X-337251Y+2557993D01*
X-337251Y+2758749D01*
X-413451Y+2758749D01*
X-413451Y+2828193D01*
X-485258Y+2900000D01*
X+2400000Y+2900000D01*
X+2400000Y+2411349D01*
G37*
%LPC*%
G36*
X+71399Y+2093050D02*
X+128601Y+2093050D01*
X+169050Y+2052601D01*
X+169050Y+1995399D01*
X+128601Y+1954950D01*
X+71399Y+1954950D01*
X+30950Y+1995399D01*
X+30950Y+2052601D01*
X+71399Y+2093050D01*
G37*
G36*
X-2089850Y+2571067D02*
X-2089850Y+2628933D01*
X-2048933Y+2669850D01*
X-1991067Y+2669850D01*
X-1950150Y+2628933D01*
X-1950150Y+2571067D01*
X-1991067Y+2530150D01*
X-2048933Y+2530150D01*
X-2089850Y+2571067D01*
G37*
G36*
X-819850Y+2571067D02*
X-819850Y+2628933D01*
X-778933Y+2669850D01*
X-721067Y+2669850D01*
X-680150Y+2628933D01*
X-680150Y+2571067D01*
X-721067Y+2530150D01*
X-778933Y+2530150D01*
X-819850Y+2571067D01*
G37*
G36*
X-2071067Y-1315850D02*
X-2128933Y-1315850D01*
X-2169850Y-1274933D01*
X-2169850Y-1217067D01*
X-2128933Y-1176150D01*
X-2071067Y-1176150D01*
X-2030150Y-1217067D01*
X-2030150Y-1274933D01*
X-2071067Y-1315850D01*
G37*
G36*
X-2128933Y-684150D02*
X-2071067Y-684150D01*
X-2030150Y-725067D01*
X-2030150Y-782933D01*
X-2071067Y-823850D01*
X-2128933Y-823850D01*
X-2169850Y-782933D01*
X-2169850Y-725067D01*
X-2128933Y-684150D01*
G37*
G36*
X-957150Y-493672D02*
X-957150Y-446328D01*
X-923672Y-412850D01*
X-876328Y-412850D01*
X-842850Y-446328D01*
X-842850Y-493672D01*
X-876328Y-527150D01*
X-923672Y-527150D01*
X-957150Y-493672D01*
G37*
G36*
X-947150Y-793672D02*
X-947150Y-746328D01*
X-913672Y-712850D01*
X-866328Y-712850D01*
X-832850Y-746328D01*
X-832850Y-793672D01*
X-866328Y-827150D01*
X-913672Y-827150D01*
X-947150Y-793672D01*
G37*
G36*
X-947150Y-1093672D02*
X-947150Y-1046328D01*
X-913672Y-1012850D01*
X-866328Y-1012850D01*
X-832850Y-1046328D01*
X-832850Y-1093672D01*
X-866328Y-1127150D01*
X-913672Y-1127150D01*
X-947150Y-1093672D01*
G37*
G36*
X-838850Y-1346328D02*
X-838850Y-1393672D01*
X-872328Y-1427150D01*
X-919672Y-1427150D01*
X-953150Y-1393672D01*
X-953150Y-1346328D01*
X-919672Y-1312850D01*
X-872328Y-1312850D01*
X-838850Y-1346328D01*
G37*
G36*
X-1669951Y+860495D02*
X-1669951Y+739505D01*
X-1733451Y+676005D01*
X-1733451Y+423995D01*
X-1669951Y+360495D01*
X-1669951Y+239505D01*
X-1755505Y+153951D01*
X-1876495Y+153951D01*
X-1962049Y+239505D01*
X-1962049Y+360495D01*
X-1898549Y+423995D01*
X-1898549Y+676005D01*
X-1962049Y+739505D01*
X-1962049Y+860495D01*
X-1876495Y+946049D01*
X-1755505Y+946049D01*
X-1669951Y+860495D01*
G37*
G36*
X-857150Y+276328D02*
X-857150Y+323672D01*
X-823672Y+357150D01*
X-776328Y+357150D01*
X-742850Y+323672D01*
X-742850Y+276328D01*
X-776328Y+242850D01*
X-823672Y+242850D01*
X-857150Y+276328D01*
G37*
G36*
X+641150Y+423672D02*
X+641150Y+376328D01*
X+607672Y+342850D01*
X+560328Y+342850D01*
X+526850Y+376328D01*
X+526850Y+423672D01*
X+560328Y+457150D01*
X+607672Y+457150D01*
X+641150Y+423672D01*
G37*
%LPD*%
D10*
X-1816000Y+800000D02*
X-1816000Y+300000D01*
D11*
X+1800000Y-646000D02*
X+1524000Y-646000D01*
X+1471500Y-698500D01*
X+762000Y-698500D01*
X+533500Y-470000D01*
X+116000Y-470000D01*
X+1800000Y-1646000D02*
X+1106500Y-952500D01*
X+635000Y-952500D01*
X+452500Y-770000D01*
X+126000Y-770000D01*
D10*
X-2100000Y-500000D02*
X-2286000Y-500000D01*
X-2286000Y-2032000D01*
X-2218000Y-2100000D01*
X+900000Y-2100000D01*
D11*
X+2300000Y+2278000D02*
X+1270000Y+2278000D01*
X+1161588Y+2169588D01*
X+1161588Y-127000D01*
X+1098088Y-190500D01*
X+0Y-190500D01*
X-63500Y-254000D01*
X-63500Y-825500D01*
X+31000Y-920000D01*
X+254000Y-920000D01*
X+418000Y-1084000D01*
X+900000Y-1084000D01*
D10*
X+2300000Y+754000D02*
X+2095500Y+754000D01*
X+2032000Y+690500D01*
X+2032000Y+516000D01*
X+1616000Y+100000D01*
X+2300000Y+1262000D02*
X+1397000Y+1262000D01*
X+1333500Y+1198500D01*
X+1333500Y-317500D01*
X+1397000Y-381000D01*
X+1905000Y-381000D01*
X+1968500Y-444500D01*
X+1968500Y-900000D01*
X+1800000Y-900000D01*
D12*
X+100000Y+2024000D02*
X+508000Y+2024000D01*
X+584000Y+1948000D01*
X+584000Y+400000D01*
X+100000Y+2024000D02*
X-635000Y+2024000D01*
X-750000Y+2139000D01*
X-750000Y+2600000D01*
X-2100000Y-754000D02*
X-1841500Y-754000D01*
X-1825500Y-770000D01*
X-890000Y-770000D01*
X-900000Y-470000D02*
X-900000Y+52500D01*
X-889000Y+63500D01*
X-2020000Y+2600000D02*
X-2020000Y+1194500D01*
X-889000Y+63500D01*
X-800000Y+152500D01*
X-800000Y+300000D01*
X-900000Y-470000D02*
X-890000Y-480000D01*
X-890000Y-770000D01*
X-890000Y-1070000D02*
X-896000Y-1076000D01*
X-896000Y-1370000D01*
D10*
X-2100000Y-754000D02*
X-2100000Y-1246000D01*
D12*
X-890000Y-770000D02*
X-890000Y-1070000D01*
D10*
X+1600000Y+400000D02*
X+1460500Y+260500D01*
X+1460500Y-127000D01*
X+1524000Y-190500D01*
X+2032000Y-190500D01*
X+2095500Y-254000D01*
X+2095500Y-1079500D01*
X+2032000Y-1143000D01*
X+1651000Y-1143000D01*
X+1338000Y-830000D01*
X+900000Y-830000D01*
X+1600000Y+400000D02*
X+1600000Y+889000D01*
X+1719000Y+1008000D01*
X+2300000Y+1008000D01*
X-800000Y+800000D02*
X-1766000Y+1766000D01*
X-1766000Y+2600000D01*
X-800000Y+800000D02*
X-100000Y+100000D01*
X+600000Y+100000D01*
X-496000Y+2600000D02*
X-174000Y+2278000D01*
X+100000Y+2278000D01*
X+825500Y-2540000D02*
X+825500Y-2900000D01*
X+1000000Y-2900000D01*
X+825500Y-2540000D02*
X+1079500Y-2286000D01*
X+1079500Y-1846000D01*
X+900000Y-1846000D01*
D11*
X+126000Y-1070000D02*
X+308000Y-1070000D01*
X+444500Y-1206500D01*
X+1143000Y-1206500D01*
X+1290000Y-1353500D01*
X+1290000Y-2136000D01*
X+1800000Y-2646000D01*
X+120000Y-1370000D02*
X+274000Y-1524000D01*
X+444500Y-1524000D01*
X+508000Y-1460500D01*
X+1079500Y-1460500D01*
X+1200000Y-1581000D01*
X+1200000Y-2446000D01*
X+1000000Y-2646000D01*
D10*
X-2100000Y-1500000D02*
X-1940000Y-1660000D01*
X-357000Y-1660000D01*
X-289000Y-1592000D01*
X+900000Y-1592000D01*
D11*
X+900000Y-1338000D02*
X+381000Y-1338000D01*
X+249500Y-1206500D01*
X-63500Y-1206500D01*
X-320000Y-950000D01*
X-320000Y-383500D01*
X-63500Y-127000D01*
X+762000Y-127000D01*
X+825500Y-63500D01*
X+825500Y+190500D01*
X+762000Y+254000D01*
X+470000Y+254000D01*
X+380000Y+400000D01*
X+380000Y+1580000D01*
X+254000Y+1651000D01*
X-889000Y+1651000D01*
X-1004000Y+1766000D01*
X-1004000Y+2600000D01*
D10*
X+1800000Y-2900000D02*
X+2413000Y-2900000D01*
X+2600000Y-2713000D01*
X+2600000Y+1770000D01*
X+2300000Y+1770000D01*
X+1800000Y-1900000D02*
X+2310000Y-1900000D01*
X+2310000Y+0D01*
X+2500000Y+114114D01*
X+2500000Y+1516000D01*
X+2300000Y+1516000D01*
X-496000Y+2600000D02*
X-496000Y+2794000D01*
X-559500Y+2857500D01*
X-2349500Y+2857500D01*
X-2413000Y+2794000D01*
X-2413000Y-2476500D01*
X-2349500Y-2540000D01*
X+825500Y-2540000D01*
X-2020000Y+2600000D02*
X-2020000Y+2774951D01*
X-750000Y+2774951D01*
X-750000Y+2600000D01*
D13*
X+2400000Y+2411349D02*
X+2115851Y+2411349D01*
X+2115851Y+2350389D01*
X+1240017Y+2350389D01*
X+1089199Y+2199571D01*
X+1089199Y-97015D01*
X+1068103Y-118111D01*
X+873263Y-118111D01*
X+897889Y-93485D01*
X+897889Y+220485D01*
X+791985Y+326389D01*
X+510415Y+326389D01*
X+452389Y+420520D01*
X+452389Y+1599599D01*
X+432613Y+1633443D01*
X+284149Y+1717101D01*
X+284149Y+1903349D01*
X-84149Y+1903349D01*
X-84149Y+1723389D01*
X-859017Y+1723389D01*
X-931611Y+1795983D01*
X-931611Y+2441251D01*
X-845251Y+2441251D01*
X-845251Y+2758749D01*
X-1924749Y+2758749D01*
X-1924749Y+2441251D01*
X-1848549Y+2441251D01*
X-1848549Y+1731809D01*
X-946049Y+829309D01*
X-946049Y+739505D01*
X-860495Y+653951D01*
X-770691Y+653951D01*
X-134191Y+17451D01*
X+476005Y+17451D01*
X+539505Y-46049D01*
X+660495Y-46049D01*
X+746049Y+39505D01*
X+746049Y+160495D01*
X+724933Y+181611D01*
X+732015Y+181611D01*
X+753111Y+160515D01*
X+753111Y-33515D01*
X+732015Y-54611D01*
X-93483Y-54611D01*
X-392389Y-353517D01*
X-392389Y-979983D01*
X-93483Y-1278889D01*
X+4567Y-1278889D01*
X-26049Y-1309505D01*
X-26049Y-1430495D01*
X+52907Y-1509451D01*
X-323193Y-1509451D01*
X-391193Y-1577451D01*
X-1905807Y-1577451D01*
X-1941251Y-1542007D01*
X-1941251Y-1341251D01*
X-2203451Y-1341251D01*
X-2203451Y-658749D01*
X-1941251Y-658749D01*
X-1941251Y-341251D01*
X-2258749Y-341251D01*
X-2258749Y-417451D01*
X-2320193Y-417451D01*
X-2330451Y-427709D01*
X-2330451Y+2759807D01*
X-2315307Y+2774951D01*
X-593693Y+2774951D01*
X-578549Y+2759807D01*
X-578549Y+2758749D01*
X-654749Y+2758749D01*
X-654749Y+2441251D01*
X-453993Y+2441251D01*
X-208193Y+2195451D01*
X-84149Y+2195451D01*
X-84149Y+2144651D01*
X+284149Y+2144651D01*
X+284149Y+2411349D01*
X-84149Y+2411349D01*
X-84149Y+2360549D01*
X-139807Y+2360549D01*
X-337251Y+2557993D01*
X-337251Y+2758749D01*
X-413451Y+2758749D01*
X-413451Y+2828193D01*
X-485258Y+2900000D01*
X+2400000Y+2900000D01*
X+2400000Y+2411349D01*
X+71399Y+2093050D02*
X+128601Y+2093050D01*
X+169050Y+2052601D01*
X+169050Y+1995399D01*
X+128601Y+1954950D01*
X+71399Y+1954950D01*
X+30950Y+1995399D01*
X+30950Y+2052601D01*
X+71399Y+2093050D01*
X-2089850Y+2571067D02*
X-2089850Y+2628933D01*
X-2048933Y+2669850D01*
X-1991067Y+2669850D01*
X-1950150Y+2628933D01*
X-1950150Y+2571067D01*
X-1991067Y+2530150D01*
X-2048933Y+2530150D01*
X-2089850Y+2571067D01*
X-819850Y+2571067D02*
X-819850Y+2628933D01*
X-778933Y+2669850D01*
X-721067Y+2669850D01*
X-680150Y+2628933D01*
X-680150Y+2571067D01*
X-721067Y+2530150D01*
X-778933Y+2530150D01*
X-819850Y+2571067D01*
X-2071067Y-1315850D02*
X-2128933Y-1315850D01*
X-2169850Y-1274933D01*
X-2169850Y-1217067D01*
X-2128933Y-1176150D01*
X-2071067Y-1176150D01*
X-2030150Y-1217067D01*
X-2030150Y-1274933D01*
X-2071067Y-1315850D01*
X-2128933Y-684150D02*
X-2071067Y-684150D01*
X-2030150Y-725067D01*
X-2030150Y-782933D01*
X-2071067Y-823850D01*
X-2128933Y-823850D01*
X-2169850Y-782933D01*
X-2169850Y-725067D01*
X-2128933Y-684150D01*
X-957150Y-493672D02*
X-957150Y-446328D01*
X-923672Y-412850D01*
X-876328Y-412850D01*
X-842850Y-446328D01*
X-842850Y-493672D01*
X-876328Y-527150D01*
X-923672Y-527150D01*
X-957150Y-493672D01*
X-947150Y-793672D02*
X-947150Y-746328D01*
X-913672Y-712850D01*
X-866328Y-712850D01*
X-832850Y-746328D01*
X-832850Y-793672D01*
X-866328Y-827150D01*
X-913672Y-827150D01*
X-947150Y-793672D01*
X-947150Y-1093672D02*
X-947150Y-1046328D01*
X-913672Y-1012850D01*
X-866328Y-1012850D01*
X-832850Y-1046328D01*
X-832850Y-1093672D01*
X-866328Y-1127150D01*
X-913672Y-1127150D01*
X-947150Y-1093672D01*
X-838850Y-1346328D02*
X-838850Y-1393672D01*
X-872328Y-1427150D01*
X-919672Y-1427150D01*
X-953150Y-1393672D01*
X-953150Y-1346328D01*
X-919672Y-1312850D01*
X-872328Y-1312850D01*
X-838850Y-1346328D01*
X-1669951Y+860495D02*
X-1669951Y+739505D01*
X-1733451Y+676005D01*
X-1733451Y+423995D01*
X-1669951Y+360495D01*
X-1669951Y+239505D01*
X-1755505Y+153951D01*
X-1876495Y+153951D01*
X-1962049Y+239505D01*
X-1962049Y+360495D01*
X-1898549Y+423995D01*
X-1898549Y+676005D01*
X-1962049Y+739505D01*
X-1962049Y+860495D01*
X-1876495Y+946049D01*
X-1755505Y+946049D01*
X-1669951Y+860495D01*
X-857150Y+276328D02*
X-857150Y+323672D01*
X-823672Y+357150D01*
X-776328Y+357150D01*
X-742850Y+323672D01*
X-742850Y+276328D01*
X-776328Y+242850D01*
X-823672Y+242850D01*
X-857150Y+276328D01*
X+641150Y+423672D02*
X+641150Y+376328D01*
X+607672Y+342850D01*
X+560328Y+342850D01*
X+526850Y+376328D01*
X+526850Y+423672D01*
X+560328Y+457150D01*
X+607672Y+457150D01*
X+641150Y+423672D01*
D12*
X+100000Y+2093050D02*
X+100000Y+2024000D01*
X+100000Y+1954950D02*
X+100000Y+2024000D01*
X+30950Y+2024000D02*
X+100000Y+2024000D01*
X+169050Y+2024000D02*
X+100000Y+2024000D01*
X-2089850Y+2600000D02*
X-2020000Y+2600000D01*
X-1950150Y+2600000D02*
X-2020000Y+2600000D01*
X-2020000Y+2530150D02*
X-2020000Y+2600000D01*
X-2020000Y+2669850D02*
X-2020000Y+2600000D01*
X-819850Y+2600000D02*
X-750000Y+2600000D01*
X-680150Y+2600000D02*
X-750000Y+2600000D01*
X-750000Y+2530150D02*
X-750000Y+2600000D01*
X-750000Y+2669850D02*
X-750000Y+2600000D01*
X-2100000Y-1315850D02*
X-2100000Y-1246000D01*
X-2100000Y-1176150D02*
X-2100000Y-1246000D01*
X-2030150Y-1246000D02*
X-2100000Y-1246000D01*
X-2169850Y-1246000D02*
X-2100000Y-1246000D01*
X-2100000Y-684150D02*
X-2100000Y-754000D01*
X-2100000Y-823850D02*
X-2100000Y-754000D01*
X-2169850Y-754000D02*
X-2100000Y-754000D01*
X-2030150Y-754000D02*
X-2100000Y-754000D01*
X-957150Y-470000D02*
X-900000Y-470000D01*
X-842850Y-470000D02*
X-900000Y-470000D01*
X-900000Y-527150D02*
X-900000Y-470000D01*
X-900000Y-412850D02*
X-900000Y-470000D01*
X-947150Y-770000D02*
X-890000Y-770000D01*
X-832850Y-770000D02*
X-890000Y-770000D01*
X-890000Y-827150D02*
X-890000Y-770000D01*
X-890000Y-712850D02*
X-890000Y-770000D01*
X-947150Y-1070000D02*
X-890000Y-1070000D01*
X-832850Y-1070000D02*
X-890000Y-1070000D01*
X-890000Y-1127150D02*
X-890000Y-1070000D01*
X-890000Y-1012850D02*
X-890000Y-1070000D01*
X-838850Y-1370000D02*
X-896000Y-1370000D01*
X-953150Y-1370000D02*
X-896000Y-1370000D01*
X-896000Y-1312850D02*
X-896000Y-1370000D01*
X-896000Y-1427150D02*
X-896000Y-1370000D01*
X-857150Y+300000D02*
X-800000Y+300000D01*
X-742850Y+300000D02*
X-800000Y+300000D01*
X-800000Y+242850D02*
X-800000Y+300000D01*
X-800000Y+357150D02*
X-800000Y+300000D01*
X+641150Y+400000D02*
X+584000Y+400000D01*
X+526850Y+400000D02*
X+584000Y+400000D01*
X+584000Y+457150D02*
X+584000Y+400000D01*
X+584000Y+342850D02*
X+584000Y+400000D01*
D14*
X+2300000Y+2278000D03*
X+2300000Y+2024000D03*
X+2300000Y+1770000D03*
X+2300000Y+1516000D03*
X+2300000Y+1262000D03*
X+2300000Y+1008000D03*
X+2300000Y+754000D03*
X+2300000Y+500000D03*
X+100000Y+2278000D03*
X+100000Y+2024000D03*
X+100000Y+1770000D03*
X+100000Y+1516000D03*
X+100000Y+1262000D03*
X+100000Y+1008000D03*
X+100000Y+754000D03*
X+100000Y+500000D03*
D15*
X-2020000Y+2600000D03*
X-1766000Y+2600000D03*
X-1512000Y+2600000D03*
X-1258000Y+2600000D03*
X-1004000Y+2600000D03*
X-750000Y+2600000D03*
X-496000Y+2600000D03*
X+1800000Y-900000D03*
X+1800000Y-646000D03*
X+1800000Y-1900000D03*
X+1800000Y-1646000D03*
X+1800000Y-2900000D03*
X+1800000Y-2646000D03*
X+1000000Y-2900000D03*
X+1000000Y-2646000D03*
X-2100000Y-1500000D03*
X-2100000Y-1246000D03*
X-2100000Y-500000D03*
X-2100000Y-754000D03*
D16*
X-900000Y-470000D03*
X+116000Y-470000D03*
X-890000Y-770000D03*
X+126000Y-770000D03*
X-890000Y-1070000D03*
X+126000Y-1070000D03*
X+120000Y-1370000D03*
X-896000Y-1370000D03*
X-1816000Y+300000D03*
X-800000Y+300000D03*
X+600000Y+100000D03*
X+1616000Y+100000D03*
X-800000Y+800000D03*
X-1816000Y+800000D03*
X+1600000Y+400000D03*
X+584000Y+400000D03*
D14*
X+900000Y-2100000D03*
X+900000Y-1846000D03*
X+900000Y-1592000D03*
X+900000Y-1338000D03*
X+900000Y-1084000D03*
X+900000Y-830000D03*
X+900000Y-576000D03*
X+900000Y-322000D03*
M02*
