G04 PROTEUS RS274X GERBER FILE*
%FSLAX45Y45*%
%MOMM*%
G01*
%ADD10C,0.508000*%
%ADD11C,0.381000*%
%ADD12C,0.203200*%
%AMDIL003*
4,1,8,
-1.270000,0.457200,-0.965200,0.762000,0.965200,0.762000,1.270000,0.457200,1.270000,-0.457200,
0.965200,-0.762000,-0.965200,-0.762000,-1.270000,-0.457200,-1.270000,0.457200,
0*%
%ADD13DIL003*%
%ADD14R,2.032000X2.032000*%
%ADD15C,1.778000*%
G36*
X+2400000Y+2753359D02*
X+980229Y+2753359D01*
X+802641Y+2575771D01*
X+802641Y+480271D01*
X+726229Y+403859D01*
X+287959Y+403859D01*
X+287959Y+1907159D01*
X-87959Y+1907159D01*
X-87959Y+403859D01*
X-1247729Y+403859D01*
X-1450141Y+606271D01*
X-1450141Y+696074D01*
X-1537926Y+783859D01*
X-1662074Y+783859D01*
X-1691641Y+754292D01*
X-1691641Y+789729D01*
X-1615229Y+866141D01*
X-1170729Y+866141D01*
X-993141Y+1043729D01*
X-993141Y+1547208D01*
X-986359Y+1540426D01*
X-986359Y+1019771D01*
X-1222271Y+783859D01*
X-1312074Y+783859D01*
X-1399859Y+696074D01*
X-1399859Y+571926D01*
X-1312074Y+484141D01*
X-1187926Y+484141D01*
X-1100141Y+571926D01*
X-1100141Y+661729D01*
X-813641Y+948229D01*
X-813641Y+1540426D01*
X-750141Y+1603926D01*
X-750141Y+1728074D01*
X-837926Y+1815859D01*
X-962074Y+1815859D01*
X-993141Y+1784792D01*
X-993141Y+1996229D01*
X-917641Y+2071729D01*
X-917641Y+2437441D01*
X-841441Y+2437441D01*
X-841441Y+2762559D01*
X-1928559Y+2762559D01*
X-1928559Y+2437441D01*
X-1852359Y+2437441D01*
X-1852359Y+1780229D01*
X-1749859Y+1677729D01*
X-1749859Y+1587926D01*
X-1662074Y+1500141D01*
X-1537926Y+1500141D01*
X-1474426Y+1563641D01*
X-1375574Y+1563641D01*
X-1312074Y+1500141D01*
X-1187926Y+1500141D01*
X-1165859Y+1522208D01*
X-1165859Y+1115271D01*
X-1242271Y+1038859D01*
X-1686771Y+1038859D01*
X-1864359Y+861271D01*
X-1864359Y-353271D01*
X-1686771Y-530859D01*
X-226271Y-530859D01*
X-149859Y-607271D01*
X-149859Y-1246771D01*
X+17011Y-1413641D01*
X-1937441Y-1413641D01*
X-1937441Y-1337441D01*
X-2262559Y-1337441D01*
X-2262559Y-1555447D01*
X-2263141Y-1554789D01*
X-2263141Y-586359D01*
X-2262559Y-586359D01*
X-2262559Y-662559D01*
X-1937441Y-662559D01*
X-1937441Y-337441D01*
X-2262559Y-337441D01*
X-2262559Y-413641D01*
X-2385271Y-413641D01*
X-2390141Y-418511D01*
X-2390141Y+2758229D01*
X-2313729Y+2834641D01*
X-607271Y+2834641D01*
X-594359Y+2821729D01*
X-594359Y+2791347D01*
X-592838Y+2762559D01*
X-658559Y+2762559D01*
X-658559Y+2437441D01*
X-333441Y+2437441D01*
X-333441Y+2762559D01*
X-419071Y+2762559D01*
X-421641Y+2797113D01*
X-421641Y+2821729D01*
X-408729Y+2834641D01*
X-99271Y+2834641D01*
X+13641Y+2721729D01*
X+13641Y+2415159D01*
X-87959Y+2415159D01*
X-87959Y+2140841D01*
X+287959Y+2140841D01*
X+287959Y+2415159D01*
X+186359Y+2415159D01*
X+186359Y+2793271D01*
X+79630Y+2900000D01*
X+2400000Y+2900000D01*
X+2400000Y+2753359D01*
G37*
%LPC*%
G36*
X+75081Y+2084160D02*
X+124919Y+2084160D01*
X+160160Y+2048919D01*
X+160160Y+1999081D01*
X+124919Y+1963840D01*
X+75081Y+1963840D01*
X+39840Y+1999081D01*
X+39840Y+2048919D01*
X+75081Y+2084160D01*
G37*
G36*
X-2080960Y+2574750D02*
X-2080960Y+2625250D01*
X-2045250Y+2660960D01*
X-1994750Y+2660960D01*
X-1959040Y+2625250D01*
X-1959040Y+2574750D01*
X-1994750Y+2539040D01*
X-2045250Y+2539040D01*
X-2080960Y+2574750D01*
G37*
G36*
X-810960Y+2574750D02*
X-810960Y+2625250D01*
X-775250Y+2660960D01*
X-724750Y+2660960D01*
X-689040Y+2625250D01*
X-689040Y+2574750D01*
X-724750Y+2539040D01*
X-775250Y+2539040D01*
X-810960Y+2574750D01*
G37*
G36*
X-2074750Y-1306960D02*
X-2125250Y-1306960D01*
X-2160960Y-1271250D01*
X-2160960Y-1220750D01*
X-2125250Y-1185040D01*
X-2074750Y-1185040D01*
X-2039040Y-1220750D01*
X-2039040Y-1271250D01*
X-2074750Y-1306960D01*
G37*
G36*
X-2125250Y-693040D02*
X-2074750Y-693040D01*
X-2039040Y-728750D01*
X-2039040Y-779250D01*
X-2074750Y-814960D01*
X-2125250Y-814960D01*
X-2160960Y-779250D01*
X-2160960Y-728750D01*
X-2125250Y-693040D01*
G37*
G36*
X-239990Y-801740D02*
X-200010Y-801740D01*
X-171740Y-830010D01*
X-171740Y-869990D01*
X-200010Y-898260D01*
X-239990Y-898260D01*
X-268260Y-869990D01*
X-268260Y-830010D01*
X-239990Y-801740D01*
G37*
G36*
X-539990Y-811740D02*
X-500010Y-811740D01*
X-471740Y-840010D01*
X-471740Y-879990D01*
X-500010Y-908260D01*
X-539990Y-908260D01*
X-568260Y-879990D01*
X-568260Y-840010D01*
X-539990Y-811740D01*
G37*
G36*
X-839990Y-811740D02*
X-800010Y-811740D01*
X-771740Y-840010D01*
X-771740Y-879990D01*
X-800010Y-908260D01*
X-839990Y-908260D01*
X-868260Y-879990D01*
X-868260Y-840010D01*
X-839990Y-811740D01*
G37*
G36*
X-1100010Y-902260D02*
X-1139990Y-902260D01*
X-1168260Y-873990D01*
X-1168260Y-834010D01*
X-1139990Y-805740D01*
X-1100010Y-805740D01*
X-1071740Y-834010D01*
X-1071740Y-873990D01*
X-1100010Y-902260D01*
G37*
G36*
X-919990Y+698260D02*
X-880010Y+698260D01*
X-851740Y+669990D01*
X-851740Y+630010D01*
X-880010Y+601740D01*
X-919990Y+601740D01*
X-948260Y+630010D01*
X-948260Y+669990D01*
X-919990Y+698260D01*
G37*
G36*
X-617740Y-580010D02*
X-617740Y-619990D01*
X-646010Y-648260D01*
X-685990Y-648260D01*
X-714260Y-619990D01*
X-714260Y-580010D01*
X-685990Y-551740D01*
X-646010Y-551740D01*
X-617740Y-580010D01*
G37*
%LPD*%
D10*
X-1120000Y-1870000D02*
X-344000Y-2646000D01*
X+1000000Y-2646000D01*
X-1250000Y+634000D02*
X-900000Y+984000D01*
X-900000Y+1666000D01*
X-820000Y-1876000D02*
X-219500Y-2476500D01*
X+1630500Y-2476500D01*
X+1800000Y-2646000D01*
X+900000Y-1592000D02*
X+635000Y-1592000D01*
X+543000Y-1500000D01*
X-2100000Y-1500000D01*
X+900000Y-1084000D02*
X+1143000Y-1084000D01*
X+1270000Y-957000D01*
X+1270000Y+2095500D01*
X+1452500Y+2278000D01*
X+2300000Y+2278000D01*
X+2300000Y+1262000D02*
X+2032000Y+1262000D01*
X+2032000Y+317500D01*
X+2222500Y+127000D01*
X+2222500Y-2730500D01*
X+2053000Y-2900000D01*
X+1800000Y-2900000D01*
X+2300000Y+1516000D02*
X+2032000Y+1516000D01*
X+1905000Y+1389000D01*
X+1905000Y-190500D01*
X+2095500Y-381000D01*
X+2095500Y-1900000D01*
X+1800000Y-1900000D01*
X+2300000Y+1770000D02*
X+1778000Y+1770000D01*
X+1651000Y+1643000D01*
X+1651000Y-127000D01*
X+1968500Y-444500D01*
X+1968500Y-900000D01*
X+1800000Y-900000D01*
D11*
X-2020000Y+2600000D02*
X-2020000Y+1397000D01*
X-1905000Y+1282000D01*
X-1905000Y-754000D01*
X-2100000Y-754000D01*
X-698500Y+1905000D02*
X-698500Y+851500D01*
X-900000Y+650000D01*
X-635000Y+2032000D02*
X-571500Y+2032000D01*
X-563500Y+2024000D01*
X+100000Y+2024000D01*
X-698500Y+1905000D02*
X-698500Y+1968500D01*
X-635000Y+2032000D01*
X-750000Y+2600000D02*
X-750000Y+2222500D01*
X-635000Y+2107500D01*
X-635000Y+2032000D01*
X-520000Y-860000D02*
X-230000Y-860000D01*
X-220000Y-850000D01*
X-820000Y-860000D02*
X-826000Y-854000D01*
X-1120000Y-854000D01*
X-2020000Y+2600000D02*
X-2020000Y+2794000D01*
X-750000Y+2794000D01*
X-750000Y+2600000D01*
X-2100000Y-1246000D02*
X-2100000Y-754000D01*
X-520000Y-860000D02*
X-820000Y-860000D01*
X-2100000Y-1246000D02*
X-1512000Y-1246000D01*
X-1120000Y-854000D01*
X-820000Y-860000D02*
X-820000Y-688900D01*
X-731100Y-600000D01*
X-666000Y-600000D01*
D10*
X+900000Y-830000D02*
X+580000Y-830000D01*
X+350000Y-600000D01*
X-1600000Y+1650000D02*
X-1766000Y+1816000D01*
X-1766000Y+2600000D01*
X-1600000Y+1650000D02*
X-1250000Y+1650000D01*
X+900000Y-1338000D02*
X+63500Y-1338000D01*
X-63500Y-1211000D01*
X-63500Y-571500D01*
X-190500Y-444500D01*
X-1651000Y-444500D01*
X-1778000Y-317500D01*
X-1778000Y+825500D01*
X-1651000Y+952500D01*
X-1206500Y+952500D01*
X-1079500Y+1079500D01*
X-1079500Y+2032000D01*
X-1004000Y+2107500D01*
X-1004000Y+2600000D01*
X-1397000Y-2349500D02*
X-1460500Y-2349500D01*
X-1524000Y-2349500D02*
X-1460500Y-2349500D01*
X-508000Y+2857500D02*
X-571500Y+2921000D01*
X-2349500Y+2921000D01*
X-2476500Y+2794000D01*
X-2476500Y-2222500D01*
X-2349500Y-2349500D01*
X-1524000Y-2349500D01*
X-1397000Y-2349500D02*
X-846500Y-2900000D01*
X+1000000Y-2900000D01*
X-508000Y+2857500D02*
X-444500Y+2921000D01*
X-63500Y+2921000D01*
X+100000Y+2757500D01*
X+100000Y+2278000D01*
X+1000000Y-2900000D02*
X+1250000Y-2900000D01*
X+900000Y-2100000D02*
X+698500Y-2100000D01*
X+248500Y-1650000D01*
X-1750000Y-1650000D01*
X-1750000Y-1700000D01*
X-2250000Y-1700000D01*
X-2349500Y-1587500D01*
X-2349500Y-500000D01*
X-2100000Y-500000D01*
X-508000Y+2857500D02*
X-508000Y+2794000D01*
X-496000Y+2600000D01*
X-520000Y-1876000D02*
X-46500Y-2349500D01*
X+1397000Y-2349500D01*
X+1550000Y-2196500D01*
X+1550000Y-1646000D01*
X+1800000Y-1646000D01*
X+1800000Y-646000D02*
X+1524000Y-646000D01*
X+1450000Y-720000D01*
X+1450000Y-2042500D01*
X+1239175Y-2253325D01*
X+167325Y-2253325D01*
X-220000Y-1866000D01*
X+900000Y-1846000D02*
X+1250000Y-1850000D01*
X+900000Y-830000D02*
X+1143000Y-830000D01*
X+1143000Y+2286000D01*
X+1307000Y+2450000D01*
X+2500000Y+2450000D01*
X+2500000Y+1008000D01*
X+2300000Y+1008000D01*
X+2300000Y+754000D02*
X+2600000Y+754000D01*
X+2600000Y+2564445D01*
X+2497445Y+2667000D01*
X+1016000Y+2667000D01*
X+889000Y+2540000D01*
X+889000Y+444500D01*
X+762000Y+317500D01*
X-1283500Y+317500D01*
X-1600000Y+634000D01*
D12*
X+2400000Y+2753359D02*
X+980229Y+2753359D01*
X+802641Y+2575771D01*
X+802641Y+480271D01*
X+726229Y+403859D01*
X+287959Y+403859D01*
X+287959Y+1907159D01*
X-87959Y+1907159D01*
X-87959Y+403859D01*
X-1247729Y+403859D01*
X-1450141Y+606271D01*
X-1450141Y+696074D01*
X-1537926Y+783859D01*
X-1662074Y+783859D01*
X-1691641Y+754292D01*
X-1691641Y+789729D01*
X-1615229Y+866141D01*
X-1170729Y+866141D01*
X-993141Y+1043729D01*
X-993141Y+1547208D01*
X-986359Y+1540426D01*
X-986359Y+1019771D01*
X-1222271Y+783859D01*
X-1312074Y+783859D01*
X-1399859Y+696074D01*
X-1399859Y+571926D01*
X-1312074Y+484141D01*
X-1187926Y+484141D01*
X-1100141Y+571926D01*
X-1100141Y+661729D01*
X-813641Y+948229D01*
X-813641Y+1540426D01*
X-750141Y+1603926D01*
X-750141Y+1728074D01*
X-837926Y+1815859D01*
X-962074Y+1815859D01*
X-993141Y+1784792D01*
X-993141Y+1996229D01*
X-917641Y+2071729D01*
X-917641Y+2437441D01*
X-841441Y+2437441D01*
X-841441Y+2762559D01*
X-1928559Y+2762559D01*
X-1928559Y+2437441D01*
X-1852359Y+2437441D01*
X-1852359Y+1780229D01*
X-1749859Y+1677729D01*
X-1749859Y+1587926D01*
X-1662074Y+1500141D01*
X-1537926Y+1500141D01*
X-1474426Y+1563641D01*
X-1375574Y+1563641D01*
X-1312074Y+1500141D01*
X-1187926Y+1500141D01*
X-1165859Y+1522208D01*
X-1165859Y+1115271D01*
X-1242271Y+1038859D01*
X-1686771Y+1038859D01*
X-1864359Y+861271D01*
X-1864359Y-353271D01*
X-1686771Y-530859D01*
X-226271Y-530859D01*
X-149859Y-607271D01*
X-149859Y-1246771D01*
X+17011Y-1413641D01*
X-1937441Y-1413641D01*
X-1937441Y-1337441D01*
X-2262559Y-1337441D01*
X-2262559Y-1555447D01*
X-2263141Y-1554789D01*
X-2263141Y-586359D01*
X-2262559Y-586359D01*
X-2262559Y-662559D01*
X-1937441Y-662559D01*
X-1937441Y-337441D01*
X-2262559Y-337441D01*
X-2262559Y-413641D01*
X-2385271Y-413641D01*
X-2390141Y-418511D01*
X-2390141Y+2758229D01*
X-2313729Y+2834641D01*
X-607271Y+2834641D01*
X-594359Y+2821729D01*
X-594359Y+2791347D01*
X-592838Y+2762559D01*
X-658559Y+2762559D01*
X-658559Y+2437441D01*
X-333441Y+2437441D01*
X-333441Y+2762559D01*
X-419071Y+2762559D01*
X-421641Y+2797113D01*
X-421641Y+2821729D01*
X-408729Y+2834641D01*
X-99271Y+2834641D01*
X+13641Y+2721729D01*
X+13641Y+2415159D01*
X-87959Y+2415159D01*
X-87959Y+2140841D01*
X+287959Y+2140841D01*
X+287959Y+2415159D01*
X+186359Y+2415159D01*
X+186359Y+2793271D01*
X+79630Y+2900000D01*
X+2400000Y+2900000D01*
X+2400000Y+2753359D01*
X+75081Y+2084160D02*
X+124919Y+2084160D01*
X+160160Y+2048919D01*
X+160160Y+1999081D01*
X+124919Y+1963840D01*
X+75081Y+1963840D01*
X+39840Y+1999081D01*
X+39840Y+2048919D01*
X+75081Y+2084160D01*
X-2080960Y+2574750D02*
X-2080960Y+2625250D01*
X-2045250Y+2660960D01*
X-1994750Y+2660960D01*
X-1959040Y+2625250D01*
X-1959040Y+2574750D01*
X-1994750Y+2539040D01*
X-2045250Y+2539040D01*
X-2080960Y+2574750D01*
X-810960Y+2574750D02*
X-810960Y+2625250D01*
X-775250Y+2660960D01*
X-724750Y+2660960D01*
X-689040Y+2625250D01*
X-689040Y+2574750D01*
X-724750Y+2539040D01*
X-775250Y+2539040D01*
X-810960Y+2574750D01*
X-2074750Y-1306960D02*
X-2125250Y-1306960D01*
X-2160960Y-1271250D01*
X-2160960Y-1220750D01*
X-2125250Y-1185040D01*
X-2074750Y-1185040D01*
X-2039040Y-1220750D01*
X-2039040Y-1271250D01*
X-2074750Y-1306960D01*
X-2125250Y-693040D02*
X-2074750Y-693040D01*
X-2039040Y-728750D01*
X-2039040Y-779250D01*
X-2074750Y-814960D01*
X-2125250Y-814960D01*
X-2160960Y-779250D01*
X-2160960Y-728750D01*
X-2125250Y-693040D01*
X-239990Y-801740D02*
X-200010Y-801740D01*
X-171740Y-830010D01*
X-171740Y-869990D01*
X-200010Y-898260D01*
X-239990Y-898260D01*
X-268260Y-869990D01*
X-268260Y-830010D01*
X-239990Y-801740D01*
X-539990Y-811740D02*
X-500010Y-811740D01*
X-471740Y-840010D01*
X-471740Y-879990D01*
X-500010Y-908260D01*
X-539990Y-908260D01*
X-568260Y-879990D01*
X-568260Y-840010D01*
X-539990Y-811740D01*
X-839990Y-811740D02*
X-800010Y-811740D01*
X-771740Y-840010D01*
X-771740Y-879990D01*
X-800010Y-908260D01*
X-839990Y-908260D01*
X-868260Y-879990D01*
X-868260Y-840010D01*
X-839990Y-811740D01*
X-1100010Y-902260D02*
X-1139990Y-902260D01*
X-1168260Y-873990D01*
X-1168260Y-834010D01*
X-1139990Y-805740D01*
X-1100010Y-805740D01*
X-1071740Y-834010D01*
X-1071740Y-873990D01*
X-1100010Y-902260D01*
X-919990Y+698260D02*
X-880010Y+698260D01*
X-851740Y+669990D01*
X-851740Y+630010D01*
X-880010Y+601740D01*
X-919990Y+601740D01*
X-948260Y+630010D01*
X-948260Y+669990D01*
X-919990Y+698260D01*
X-617740Y-580010D02*
X-617740Y-619990D01*
X-646010Y-648260D01*
X-685990Y-648260D01*
X-714260Y-619990D01*
X-714260Y-580010D01*
X-685990Y-551740D01*
X-646010Y-551740D01*
X-617740Y-580010D01*
X+100000Y+2084160D02*
X+100000Y+2024000D01*
X+100000Y+1963840D02*
X+100000Y+2024000D01*
X+39840Y+2024000D02*
X+100000Y+2024000D01*
X+160160Y+2024000D02*
X+100000Y+2024000D01*
X-2080960Y+2600000D02*
X-2020000Y+2600000D01*
X-1959040Y+2600000D02*
X-2020000Y+2600000D01*
X-2020000Y+2539040D02*
X-2020000Y+2600000D01*
X-2020000Y+2660960D02*
X-2020000Y+2600000D01*
X-810960Y+2600000D02*
X-750000Y+2600000D01*
X-689040Y+2600000D02*
X-750000Y+2600000D01*
X-750000Y+2539040D02*
X-750000Y+2600000D01*
X-750000Y+2660960D02*
X-750000Y+2600000D01*
X-2100000Y-1306960D02*
X-2100000Y-1246000D01*
X-2100000Y-1185040D02*
X-2100000Y-1246000D01*
X-2039040Y-1246000D02*
X-2100000Y-1246000D01*
X-2160960Y-1246000D02*
X-2100000Y-1246000D01*
X-2100000Y-693040D02*
X-2100000Y-754000D01*
X-2100000Y-814960D02*
X-2100000Y-754000D01*
X-2160960Y-754000D02*
X-2100000Y-754000D01*
X-2039040Y-754000D02*
X-2100000Y-754000D01*
X-220000Y-801740D02*
X-220000Y-850000D01*
X-220000Y-898260D02*
X-220000Y-850000D01*
X-268260Y-850000D02*
X-220000Y-850000D01*
X-171740Y-850000D02*
X-220000Y-850000D01*
X-520000Y-811740D02*
X-520000Y-860000D01*
X-520000Y-908260D02*
X-520000Y-860000D01*
X-568260Y-860000D02*
X-520000Y-860000D01*
X-471740Y-860000D02*
X-520000Y-860000D01*
X-820000Y-811740D02*
X-820000Y-860000D01*
X-820000Y-908260D02*
X-820000Y-860000D01*
X-868260Y-860000D02*
X-820000Y-860000D01*
X-771740Y-860000D02*
X-820000Y-860000D01*
X-1120000Y-902260D02*
X-1120000Y-854000D01*
X-1120000Y-805740D02*
X-1120000Y-854000D01*
X-1071740Y-854000D02*
X-1120000Y-854000D01*
X-1168260Y-854000D02*
X-1120000Y-854000D01*
X-900000Y+698260D02*
X-900000Y+650000D01*
X-900000Y+601740D02*
X-900000Y+650000D01*
X-948260Y+650000D02*
X-900000Y+650000D01*
X-851740Y+650000D02*
X-900000Y+650000D01*
X-617740Y-600000D02*
X-666000Y-600000D01*
X-714260Y-600000D02*
X-666000Y-600000D01*
X-666000Y-551740D02*
X-666000Y-600000D01*
X-666000Y-648260D02*
X-666000Y-600000D01*
D13*
X+2300000Y+2278000D03*
X+2300000Y+2024000D03*
X+2300000Y+1770000D03*
X+2300000Y+1516000D03*
X+2300000Y+1262000D03*
X+2300000Y+1008000D03*
X+2300000Y+754000D03*
X+2300000Y+500000D03*
X+100000Y+2278000D03*
X+100000Y+2024000D03*
X+100000Y+1770000D03*
X+100000Y+1516000D03*
X+100000Y+1262000D03*
X+100000Y+1008000D03*
X+100000Y+754000D03*
X+100000Y+500000D03*
D14*
X-2020000Y+2600000D03*
X-1766000Y+2600000D03*
X-1512000Y+2600000D03*
X-1258000Y+2600000D03*
X-1004000Y+2600000D03*
X-750000Y+2600000D03*
X-496000Y+2600000D03*
X+1800000Y-900000D03*
X+1800000Y-646000D03*
X+1800000Y-1900000D03*
X+1800000Y-1646000D03*
X+1800000Y-2900000D03*
X+1800000Y-2646000D03*
X+1000000Y-2900000D03*
X+1000000Y-2646000D03*
X-2100000Y-1500000D03*
X-2100000Y-1246000D03*
X-2100000Y-500000D03*
X-2100000Y-754000D03*
D15*
X-220000Y-850000D03*
X-220000Y-1866000D03*
X-520000Y-860000D03*
X-520000Y-1876000D03*
X-820000Y-860000D03*
X-820000Y-1876000D03*
X-1120000Y-1870000D03*
X-1120000Y-854000D03*
X-900000Y+1666000D03*
X-900000Y+650000D03*
X-1600000Y+1650000D03*
X-1600000Y+634000D03*
X-1250000Y+1650000D03*
X-1250000Y+634000D03*
X+350000Y-600000D03*
X-666000Y-600000D03*
D13*
X+900000Y-2100000D03*
X+900000Y-1846000D03*
X+900000Y-1592000D03*
X+900000Y-1338000D03*
X+900000Y-1084000D03*
X+900000Y-830000D03*
X+900000Y-576000D03*
X+900000Y-322000D03*
D15*
X+1250000Y-1850000D03*
X+1250000Y-2900000D03*
M02*
